<?xml version="1.0" encoding="UTF-8"?>
<svg id="Layer_2" data-name="Layer 2" xmlns="http://www.w3.org/2000/svg" xmlns:xlink="http://www.w3.org/1999/xlink" viewBox="0 0 1036.19 1024.76">
  <defs>
    <style>
      .cls-1 {
        fill: none;
      }

      .cls-2 {
        fill: #52caef;
      }

      .cls-3 {
        clip-path: url(#clippath);
      }
    </style>
    <clipPath id="clippath">
      <rect class="cls-1" x="5.71" y="-5.71" width="1024.76" height="1036.19" transform="translate(1030.48 -5.71) rotate(90)"/>
    </clipPath>
  </defs>
  <g id="Layer_1-2" data-name="Layer 1">
    <g class="cls-3">
      <g>
        <g>
          <path class="cls-2" d="M650.59,420.73c.93-1.46,28.11-2.47,31,2.47l59.91,84.53v-86.5l1.5-1.5h22.98l1.5,1.5v127.5h-29.47l-61.44-88v88h-24.48l-1.5-1.5v-126.5Z"/>
          <path class="cls-2" d="M441.29,548.73c-20.22-1.23-38.76-12.58-44.77-33.18-3.21-11.02-2.94-54.93,1.03-65.6,4.87-13.08,22.48-28.95,36.71-30.25,16.15-1.48,45.66-1.2,62.03,0,1.93.14,3.62.58,5.46,1.06-2.33,4.78,2.93,22.1-2,24.49-18.95,2.49-40.84-1.63-59.45.49-8.99,1.03-17.3,10.78-18.37,19.61-.95,7.81-1.02,35.75,1.42,42.36,1.92,5.23,9.7,12.69,15.18,13.8,14.64,2.98,39.53-1.1,55.76.19,2.96.23,7.32.64,9.45,2.54v24.5c-20.5-.93-42.06,1.24-62.44,0Z"/>
          <path class="cls-2" d="M874.37,419.73h27.47l1.06,2.03-43.36,62.29,44.8,63.68h-26.47c-1.42,0-1.84,1.34-3.94-1.05l-29.24-42.69-1.77-1.27-31.48,46.01h-28.97l43.9-64.5-43.9-64.5h27.47l32.97,45.98,31.47-45.98Z"/>
          <path class="cls-2" d="M540.19,419.73l34.98,54.01,1.77-1.27,34.18-52.74h26.47c.04,2.92-2.15,5.49-3.58,7.91-14.3,24.28-31.3,47.13-45.37,71.59v49.5h-23.48l-1.33-1.66c-2.16-16-1.01-32.28-.61-48.38-13.45-22.31-28.54-43.7-41.92-66.04-2.39-3.98-5.77-8.46-6.58-12.92h25.48Z"/>
        </g>
        <g>
          <path class="cls-2" d="M223.36,669.38c-20.25-20.58-11.54-56.28,15.66-65.12,15.1-4.91,33.53,4.79,44.37-10.59,6.43-9.13,6.47-22.32-1.03-30.84-9.51-10.79-24.65-8.53-37.57-11.39-9.47-2.1-17.09-5.84-25.44-10.53-16.49-9.26-22.86-20.32-43.2-7.58-4.03,2.52-19.08,16.66-21.51,20.46-3.2,4.99,1.24,14.15,0,21-3.97,21.86-32.26,33.3-49.52,17.47-25.01-22.93,1.64-62.79,32.5-50.91,1.66-.05,2.85-1.66,4.01-2.6,12.81-10.29,37.5-35.76,39.98-51.97,4.37-28.5-10.51-42.04-30.02-58.05-3.25-2.67-6.23-7.78-10.46-8.61-3.54-.7-11.84,3.36-17.35,3.23-24.98-.56-36.77-28.68-21.64-48.11,14.07-18.08,45.7-11.63,51.51,10.44,1.36,5.18-.27,14.58,1.55,17.46.42.66,10.06,9.51,11.4,10.58,22.57,17.99,45.1,7.66,60.83-13.07,9.31-12.26,10.67-32.53,8.62-47.46-1.09-8-12.43-12.04-18.04-16.94-30.4-26.59-9.89-77.46,31.47-73.5,36.95,3.54,52.79,51.85,22.96,75.97-8.74,7.07-15.97,5.7-17.47,19.52-2.02,18.59,3.42,26.38-7.18,44.81-11.85,20.61-36.22,31.28-44.24,53.71-11.35,31.75,5.93,63.67,36.46,75.46,22.51,8.7,46.36-1.57,61.74,23.2,9.94,16.01,9.02,33.24-.63,49.02-3.16,5.17-10.05,10.29-11.7,15.29-4.8,14.48,2.26,24.71-5.66,39.33-11.9,21.93-42.06,28.98-60.4,10.34ZM240.72,284.98c-24.18,4.18-18.36,42.51,6.47,40.55,27.61-2.18,22.95-45.64-6.47-40.55Z"/>
          <path class="cls-2" d="M339.64,370c34.69-4.55,45.24,45.07,9.24,54.25-9.31,2.37-13.24-.18-21.97,0-7.28,9.3-21.54,18.75-28,27.98-6.36,9.08.14,21.93-3.95,34.05-7.91,23.43-37.46,34.42-57.9,18.87-25.87-19.68-18.62-59.15,12.12-68.69,12.03-3.73,28.91,1.07,39.25-5.71,2.09-1.37,25.19-24.36,25.95-26.03,1.05-2.32-.21-9.59.97-14.03,2.9-10.83,13.31-19.25,24.27-20.69Z"/>
        </g>
      </g>
    </g>
  </g>
</svg>